<svg width="27" height="25" viewBox="0 0 27 25" fill="none" xmlns="http://www.w3.org/2000/svg">
<path d="M25.1668 15.8332V16.8332H26.1668V15.8332H25.1668ZM1.8335 4.1665V3.1665H0.833496V4.1665H1.8335ZM1.8335 20.8332H0.833496V21.8332H1.8335V20.8332ZM14.1668 15.8332C14.1668 19.1469 16.8531 21.8332 20.1668 21.8332V19.8332C17.9577 19.8332 16.1668 18.0423 16.1668 15.8332H14.1668ZM20.1668 9.83317C16.8531 9.83317 14.1668 12.5195 14.1668 15.8332H16.1668C16.1668 13.624 17.9577 11.8332 20.1668 11.8332V9.83317ZM26.1668 15.8332C26.1668 12.5195 23.4805 9.83317 20.1668 9.83317V11.8332C22.376 11.8332 24.1668 13.624 24.1668 15.8332H26.1668ZM23.4098 18.1754C22.6813 19.1818 21.5002 19.8332 20.1668 19.8332V21.8332C22.1688 21.8332 23.9415 20.8517 25.0299 19.3482L23.4098 18.1754ZM1.8335 5.1665H6.00016V3.1665H1.8335V5.1665ZM6.00016 11.4998H1.8335V13.4998H6.00016V11.4998ZM2.8335 12.4998V4.1665H0.833496V12.4998H2.8335ZM9.16683 8.33317C9.16683 10.0821 7.74906 11.4998 6.00016 11.4998V13.4998C8.85363 13.4998 11.1668 11.1866 11.1668 8.33317H9.16683ZM6.00016 5.1665C7.74906 5.1665 9.16683 6.58427 9.16683 8.33317H11.1668C11.1668 5.4797 8.85363 3.1665 6.00016 3.1665V5.1665ZM1.8335 13.4998H7.66683V11.4998H1.8335V13.4998ZM7.66683 19.8332H1.8335V21.8332H7.66683V19.8332ZM2.8335 20.8332V12.4998H0.833496V20.8332H2.8335ZM10.8335 16.6665C10.8335 18.4154 9.41573 19.8332 7.66683 19.8332V21.8332C10.5203 21.8332 12.8335 19.52 12.8335 16.6665H10.8335ZM7.66683 13.4998C9.41573 13.4998 10.8335 14.9176 10.8335 16.6665H12.8335C12.8335 13.813 10.5203 11.4998 7.66683 11.4998V13.4998ZM15.1668 16.8332H25.1668V14.8332H15.1668V16.8332ZM16.0002 6.83317H24.3335V4.83317H16.0002V6.83317Z" fill="url(#paint0_linear_693:492)"/>
<defs>
<linearGradient id="paint0_linear_693:492" x1="1.8335" y1="4.1665" x2="17.5993" y2="26.2386" gradientUnits="userSpaceOnUse">
<stop offset="0.00520833" stop-color="#EECDA3"/>
<stop offset="0.833333" stop-color="#EF629F"/>
</linearGradient>
</defs>
</svg>
