<svg width="34" height="31" viewBox="0 0 34 31" fill="none" xmlns="http://www.w3.org/2000/svg">
<path d="M11.6624 16.968L11.1225 16.4474L10.9124 16.6653V16.968H11.6624ZM18.8624 9.50133L19.4023 8.98073C19.2609 8.83414 19.066 8.75133 18.8624 8.75133C18.6588 8.75133 18.4639 8.83414 18.3225 8.98073L18.8624 9.50133ZM22.4624 13.2347L23.0023 13.7553C23.2824 13.4647 23.2824 13.0046 23.0023 12.7141L22.4624 13.2347ZM15.2624 20.7013V21.4513H15.5811L15.8023 21.2219L15.2624 20.7013ZM11.6624 20.7013H10.9124C10.9124 21.1155 11.2482 21.4513 11.6624 21.4513V20.7013ZM17.0624 27.418C10.5433 27.418 5.2124 21.9296 5.2124 15.1013H3.7124C3.7124 22.7061 9.66393 28.918 17.0624 28.918V27.418ZM28.9124 15.1013C28.9124 21.9296 23.5815 27.418 17.0624 27.418V28.918C24.4609 28.918 30.4124 22.7061 30.4124 15.1013H28.9124ZM17.0624 2.78467C23.5815 2.78467 28.9124 8.27309 28.9124 15.1013H30.4124C30.4124 7.49654 24.4609 1.28467 17.0624 1.28467V2.78467ZM17.0624 1.28467C9.66393 1.28467 3.7124 7.49654 3.7124 15.1013H5.2124C5.2124 8.27309 10.5433 2.78467 17.0624 2.78467V1.28467ZM12.2023 17.4886L19.4023 10.0219L18.3225 8.98073L11.1225 16.4474L12.2023 17.4886ZM18.3225 10.0219L21.9225 13.7553L23.0023 12.7141L19.4023 8.98073L18.3225 10.0219ZM21.9225 12.7141L14.7225 20.1807L15.8023 21.2219L23.0023 13.7553L21.9225 12.7141ZM15.2624 19.9513H11.6624V21.4513H15.2624V19.9513ZM12.4124 20.7013V16.968H10.9124V20.7013H12.4124Z" fill="white"/>
</svg>
