<svg width="23" height="26" viewBox="0 0 23 26" fill="none" xmlns="http://www.w3.org/2000/svg">
<path d="M6.64062 12.3436H5.89062V13.8436H6.64062V12.3436ZM16.6406 13.8436H17.3906V12.3436H16.6406V13.8436ZM6.64144 17.3404L5.89144 17.3395L5.88981 18.8395L6.63981 18.8404L6.64144 17.3404ZM16.6398 18.8512L17.3898 18.8521L17.3914 17.3521L16.6414 17.3512L16.6398 18.8512ZM6.64112 7.34686L5.89112 7.34637L5.89013 8.84637L6.64013 8.84686L6.64112 7.34686ZM13.3068 8.85124L14.0568 8.85173L14.0578 7.35173L13.3078 7.35124L13.3068 8.85124ZM16.6406 1.43457L17.171 0.90424L16.9513 0.68457H16.6406V1.43457ZM21.6406 6.43457H22.3906V6.12391L22.171 5.90424L21.6406 6.43457ZM6.64062 13.8436H16.6406V12.3436H6.64062V13.8436ZM6.63981 18.8404L16.6398 18.8512L16.6414 17.3512L6.64144 17.3404L6.63981 18.8404ZM6.64013 8.84686L13.3068 8.85124L13.3078 7.35124L6.64112 7.34686L6.64013 8.84686ZM19.974 24.0179H3.30729V25.5179H19.974V24.0179ZM2.39062 23.1012V3.10124H0.890625V23.1012H2.39062ZM3.30729 2.18457H16.6406V0.68457H3.30729V2.18457ZM20.8906 6.43457V23.1012H22.3906V6.43457H20.8906ZM16.1103 1.9649L21.1103 6.9649L22.171 5.90424L17.171 0.90424L16.1103 1.9649ZM3.30729 24.0179C2.80103 24.0179 2.39062 23.6075 2.39062 23.1012H0.890625C0.890625 24.4359 1.9726 25.5179 3.30729 25.5179V24.0179ZM19.974 25.5179C21.3086 25.5179 22.3906 24.4359 22.3906 23.1012H20.8906C20.8906 23.6075 20.4802 24.0179 19.974 24.0179V25.5179ZM2.39062 3.10124C2.39062 2.59498 2.80103 2.18457 3.30729 2.18457V0.68457C1.9726 0.68457 0.890625 1.76655 0.890625 3.10124H2.39062Z" fill="white"/>
</svg>
