<svg width="16" height="16" viewBox="0 0 16 16" fill="none" xmlns="http://www.w3.org/2000/svg">
<path d="M7.71464 0.891846C3.52895 0.891846 0.123535 4.25878 0.123535 8.39718C0.123535 12.5356 3.52895 15.9025 7.71464 15.9025C11.9003 15.9025 15.3058 12.5356 15.3058 8.39718C15.3058 4.25878 11.9003 0.891846 7.71464 0.891846ZM8.88251 11.8612H6.54678C6.39191 11.8612 6.24339 11.8004 6.13388 11.6921C6.02437 11.5838 5.96285 11.437 5.96285 11.2838C5.96285 11.1307 6.02437 10.9839 6.13388 10.8756C6.24339 10.7673 6.39191 10.7065 6.54678 10.7065H8.88251C9.03737 10.7065 9.1859 10.7673 9.29541 10.8756C9.40492 10.9839 9.46644 11.1307 9.46644 11.2838C9.46644 11.437 9.40492 11.5838 9.29541 11.6921C9.1859 11.8004 9.03737 11.8612 8.88251 11.8612ZM10.6343 9.55184H4.79499C4.64012 9.55184 4.49159 9.49102 4.38208 9.38275C4.27258 9.27448 4.21105 9.12763 4.21105 8.97451C4.21105 8.82139 4.27258 8.67454 4.38208 8.56627C4.49159 8.458 4.64012 8.39718 4.79499 8.39718H10.6343C10.7892 8.39718 10.9377 8.458 11.0472 8.56627C11.1567 8.67454 11.2182 8.82139 11.2182 8.97451C11.2182 9.12763 11.1567 9.27448 11.0472 9.38275C10.9377 9.49102 10.7892 9.55184 10.6343 9.55184ZM11.8022 7.24251H3.62712C3.47226 7.24251 3.32373 7.18168 3.21422 7.07341C3.10471 6.96514 3.04319 6.8183 3.04319 6.66518C3.04319 6.51206 3.10471 6.36521 3.21422 6.25694C3.32373 6.14867 3.47226 6.08784 3.62712 6.08784H11.8022C11.957 6.08784 12.1056 6.14867 12.2151 6.25694C12.3246 6.36521 12.3861 6.51206 12.3861 6.66518C12.3861 6.8183 12.3246 6.96514 12.2151 7.07341C12.1056 7.18168 11.957 7.24251 11.8022 7.24251Z" fill="#FFADAD"/>
</svg>
