<svg width="25" height="26" viewBox="0 0 25 26" fill="none" xmlns="http://www.w3.org/2000/svg">
<path d="M9.46709 20.9538C9.99387 20.7879 10.2864 20.2263 10.1205 19.6996C9.95455 19.1728 9.39301 18.8803 8.86624 19.0462L9.46709 20.9538ZM3.37894 15.6994L2.41172 15.4455L1.90384 17.3799L2.87106 17.6339L3.37894 15.6994ZM14.8333 24.1667V25.1667H16.8333V24.1667H14.8333ZM15.1042 16.1458L14.9973 15.1516C14.6138 15.1928 14.2883 15.4508 14.1606 15.8147C14.0329 16.1786 14.1258 16.5835 14.3994 16.8553L15.1042 16.1458ZM20.8333 9.85417H21.8333L21.8333 9.85094L20.8333 9.85417ZM19.4448 6.51042L18.5126 6.14839C18.3693 6.51739 18.4572 6.9362 18.7367 7.21651L19.4448 6.51042ZM19.3615 3.14896L20.2745 2.74118C20.154 2.47134 19.9203 2.26862 19.6362 2.18743L19.3615 3.14896ZM15.7406 4.46875L15.4884 5.43642C15.7595 5.50709 16.0478 5.46077 16.2832 5.30876L15.7406 4.46875ZM9.25937 4.46875L8.71696 5.30886C8.95228 5.4608 9.24055 5.50707 9.5116 5.43642L9.25937 4.46875ZM5.63854 3.14896L5.36358 2.1875C5.07952 2.26874 4.84593 2.47142 4.72546 2.74118L5.63854 3.14896ZM5.55521 6.51042L6.26326 7.21657C6.54282 6.93626 6.6307 6.51742 6.48738 6.14839L5.55521 6.51042ZM4.16667 9.88125H5.16667L5.16666 9.87869L4.16667 9.88125ZM9.89583 16.1458L10.6017 16.8541C10.8732 16.5836 10.9661 16.1818 10.8411 15.8196C10.7161 15.4574 10.3951 15.1984 10.0147 15.1529L9.89583 16.1458ZM9.16667 18.3333H10.1667C10.1667 18.3089 10.1658 18.2845 10.164 18.2601L9.16667 18.3333ZM8.16667 24.1667V25.1667H10.1667V24.1667H8.16667ZM8.86624 19.0462C7.88346 19.3558 7.28332 19.314 6.90363 19.1887C6.52691 19.0644 6.2302 18.8132 5.93458 18.4278C5.78439 18.232 5.64469 18.0152 5.49481 17.7726C5.35381 17.5443 5.18857 17.2673 5.02206 17.0218C4.7007 16.5479 4.20203 15.9155 3.37894 15.6994L2.87106 17.6339C2.94068 17.6522 3.0855 17.7295 3.36674 18.1442C3.50154 18.343 3.62737 18.5551 3.79327 18.8237C3.95029 19.0779 4.13332 19.3656 4.34771 19.6451C4.78126 20.2103 5.38117 20.7924 6.27684 21.088C7.16955 21.3826 8.21758 21.3474 9.46709 20.9538L8.86624 19.0462ZM16.8333 18.2292C16.8333 17.6985 16.8108 17.1917 16.6515 16.7133C16.4805 16.2 16.1853 15.8103 15.8089 15.4364L14.3994 16.8553C14.647 17.1012 14.7164 17.2323 14.754 17.3453C14.8032 17.4932 14.8333 17.7181 14.8333 18.2292H16.8333ZM15.211 17.1401C16.7262 16.9772 18.4101 16.593 19.7135 15.4647C21.0603 14.2988 21.8333 12.4912 21.8333 9.85417H19.8333C19.8333 12.0859 19.1954 13.2679 18.4045 13.9525C17.5702 14.6748 16.3894 15.0019 14.9973 15.1516L15.211 17.1401ZM21.8333 9.85094C21.8284 8.33331 21.2245 6.87899 20.1529 5.80432L18.7367 7.21651C19.436 7.91785 19.8301 8.86696 19.8333 9.85739L21.8333 9.85094ZM20.377 6.87244C20.6338 6.21123 20.7569 5.50567 20.7393 4.79656L18.74 4.84613C18.751 5.29097 18.6737 5.73359 18.5126 6.14839L20.377 6.87244ZM20.7393 4.79656C20.7218 4.08745 20.5638 3.38886 20.2745 2.74118L18.4484 3.55673C18.6298 3.96304 18.7289 4.40128 18.74 4.84613L20.7393 4.79656ZM19.3615 3.14896C19.6362 2.18743 19.6352 2.18717 19.6343 2.1869C19.634 2.18681 19.633 2.18654 19.6324 2.18636C19.6311 2.186 19.6298 2.18563 19.6285 2.18527C19.6259 2.18454 19.6231 2.1838 19.6204 2.18305C19.6148 2.18156 19.609 2.18003 19.6028 2.17848C19.5906 2.17539 19.5771 2.17221 19.5626 2.16902C19.5334 2.16263 19.4998 2.15621 19.4615 2.15033C19.3848 2.13855 19.2904 2.129 19.1778 2.12599C18.952 2.11996 18.6572 2.14031 18.2898 2.21881C17.5564 2.3755 16.5392 2.76247 15.198 3.62874L16.2832 5.30876C17.4691 4.54273 18.2623 4.26981 18.7076 4.17467C18.9295 4.12726 19.0661 4.12372 19.1244 4.12528C19.1538 4.12606 19.1645 4.12817 19.1576 4.1271C19.1541 4.12658 19.1464 4.12528 19.1345 4.12268C19.1286 4.12137 19.1216 4.11975 19.1137 4.11774C19.1097 4.11673 19.1054 4.11563 19.1009 4.11442C19.0987 4.11382 19.0964 4.11319 19.094 4.11253C19.0928 4.11221 19.0916 4.11187 19.0904 4.11153C19.0898 4.11136 19.0889 4.1111 19.0886 4.11101C19.0877 4.11075 19.0867 4.11048 19.3615 3.14896ZM15.9929 3.50108C13.7025 2.9041 11.2975 2.9041 9.00714 3.50108L9.5116 5.43642C11.4711 4.92565 13.5289 4.92565 15.4884 5.43642L15.9929 3.50108ZM9.80179 3.62864C8.46023 2.76246 7.44306 2.3755 6.70989 2.21882C6.34256 2.14032 6.04781 2.11996 5.82207 2.12599C5.70944 2.129 5.61501 2.13856 5.53836 2.15035C5.50008 2.15624 5.46639 2.16266 5.43724 2.16905C5.42266 2.17225 5.40924 2.17543 5.39696 2.17853C5.39082 2.18008 5.38497 2.18161 5.37941 2.18311C5.37663 2.18386 5.37392 2.1846 5.37128 2.18533C5.36996 2.1857 5.36866 2.18606 5.36737 2.18642C5.36673 2.18661 5.36578 2.18687 5.36546 2.18697C5.36452 2.18723 5.36358 2.1875 5.63854 3.14896C5.9135 4.11041 5.91257 4.11068 5.91165 4.11094C5.91134 4.11103 5.91042 4.11129 5.90981 4.11146C5.90859 4.1118 5.90739 4.11214 5.90621 4.11247C5.90384 4.11313 5.90153 4.11376 5.89928 4.11436C5.89478 4.11557 5.89054 4.11668 5.88654 4.11769C5.87855 4.1197 5.87158 4.12133 5.86562 4.12264C5.85371 4.12525 5.84596 4.12655 5.8425 4.12709C5.83549 4.12817 5.84617 4.12606 5.87549 4.12528C5.93363 4.12372 6.07007 4.12725 6.29193 4.17466C6.73714 4.26981 7.53039 4.54275 8.71696 5.30886L9.80179 3.62864ZM4.72546 2.74118C4.43621 3.38886 4.27823 4.08745 4.26065 4.79656L6.26004 4.84613C6.27107 4.40128 6.37017 3.96304 6.55163 3.55673L4.72546 2.74118ZM4.26065 4.79656C4.24308 5.50567 4.36624 6.21123 4.62304 6.87244L6.48738 6.14839C6.32628 5.73359 6.24901 5.29097 6.26004 4.84613L4.26065 4.79656ZM4.84715 5.80426C4.31252 6.34033 3.88889 6.9766 3.60053 7.67664L5.44978 8.43839C5.63795 7.98159 5.91439 7.56638 6.26326 7.21657L4.84715 5.80426ZM3.60053 7.67664C3.31217 8.37667 3.16473 9.12671 3.16667 9.88381L5.16666 9.87869C5.1654 9.38464 5.26161 8.8952 5.44978 8.43839L3.60053 7.67664ZM3.16667 9.88125C3.16667 12.5037 3.9417 14.296 5.28928 15.454C6.59005 16.5718 8.27038 16.9585 9.77701 17.1387L10.0147 15.1529C8.61399 14.9853 7.42974 14.6564 6.59275 13.9371C5.80257 13.2581 5.16667 12.0921 5.16667 9.88125H3.16667ZM9.18993 15.4375C8.31395 16.3105 8.09182 17.3508 8.16935 18.4066L10.164 18.2601C10.1165 17.6137 10.2465 17.2082 10.6017 16.8541L9.18993 15.4375ZM8.16667 18.3333V24.1667H10.1667V18.3333H8.16667ZM16.8333 24.1667V21.6667H14.8333V24.1667H16.8333ZM16.8333 21.6667V18.2292H14.8333V21.6667H16.8333Z" fill="black"/>
</svg>
