<svg width="26" height="27" viewBox="0 0 26 27" fill="none" xmlns="http://www.w3.org/2000/svg">
<path d="M24.9168 13.5002H25.9168V12.5002H24.9168V13.5002ZM13.2502 24.1668C7.35913 24.1668 2.5835 19.3912 2.5835 13.5002H0.583496C0.583496 20.4958 6.25456 26.1668 13.2502 26.1668V24.1668ZM23.9168 13.5002C23.9168 19.3912 19.1412 24.1668 13.2502 24.1668V26.1668C20.2458 26.1668 25.9168 20.4958 25.9168 13.5002H23.9168ZM13.2502 0.833496C6.25456 0.833496 0.583496 6.50456 0.583496 13.5002H2.5835C2.5835 7.60913 7.35913 2.8335 13.2502 2.8335V0.833496ZM13.2502 2.8335C16.235 2.8335 18.9321 4.05821 20.8693 6.03509L22.2977 4.63529C19.9999 2.29034 16.7942 0.833496 13.2502 0.833496V2.8335ZM14.0835 14.5002H24.9168V12.5002H14.0835V14.5002Z" fill="url(#paint0_linear_693:489)"/>
<defs>
<linearGradient id="paint0_linear_693:489" x1="1.5835" y1="13.5002" x2="24.9168" y2="13.5002" gradientUnits="userSpaceOnUse">
<stop stop-color="#FFAFBD"/>
<stop offset="1" stop-color="#FFC3A0"/>
</linearGradient>
</defs>
</svg>
