<svg width="24" height="26" viewBox="0 0 24 26" fill="none" xmlns="http://www.w3.org/2000/svg">
<path d="M11.7917 1.23755L12.3111 0.696508C12.0209 0.417896 11.5625 0.417896 11.2723 0.696508L11.7917 1.23755ZM1.19922 11.4063L0.67982 10.8653L0.449219 11.0867V11.4063H1.19922ZM8.76529 24.9648V25.7148C9.1795 25.7148 9.51529 25.379 9.51529 24.9648H8.76529ZM14.8181 24.9648H14.0681C14.0681 25.379 14.4039 25.7148 14.8181 25.7148V24.9648ZM22.3842 11.4063H23.1342V11.0867L22.9036 10.8653L22.3842 11.4063ZM2.71243 25.7148H8.76529V24.2148H2.71243V25.7148ZM22.9036 10.8653L12.3111 0.696508L11.2723 1.77859L21.8648 11.9474L22.9036 10.8653ZM11.2723 0.696508L0.67982 10.8653L1.71862 11.9474L12.3111 1.77859L11.2723 0.696508ZM9.51529 24.9648V19.8804H8.01529V24.9648H9.51529ZM14.0681 19.8804V24.9648H15.5681V19.8804H14.0681ZM14.8181 25.7148H20.871V24.2148H14.8181V25.7148ZM23.1342 23.27V11.4063H21.6342V23.27H23.1342ZM0.449219 11.4063V23.27H1.94922V11.4063H0.449219ZM11.7917 17.2407C12.9713 17.2407 14.0681 18.3404 14.0681 19.8804H15.5681C15.5681 17.6763 13.955 15.7408 11.7917 15.7408V17.2407ZM11.7917 15.7408C9.62839 15.7408 8.01529 17.6763 8.01529 19.8804H9.51529C9.51529 18.3404 10.6121 17.2407 11.7917 17.2407V15.7408ZM20.871 25.7148C22.1986 25.7148 23.1342 24.538 23.1342 23.27H21.6342C21.6342 23.8739 21.2148 24.2148 20.871 24.2148V25.7148ZM2.71243 24.2148C2.36858 24.2148 1.94922 23.8739 1.94922 23.27H0.449219C0.449219 24.538 1.38483 25.7148 2.71243 25.7148V24.2148Z" fill="white"/>
</svg>
