<svg width="28" height="28" viewBox="0 0 28 28" fill="none" xmlns="http://www.w3.org/2000/svg">
<path d="M13.3358 8.17925V8.92925H14.8358V8.17925H13.3358ZM14.8358 8.16125V7.41125H13.3358V8.16125H14.8358ZM14.8358 19.8792V12.6792H13.3358V19.8792H14.8358ZM14.8358 8.17925V8.16125H13.3358V8.17925H14.8358ZM11.3858 14.3292H14.0858V12.8292H11.3858V14.3292ZM11.3858 19.7292H16.7858V18.2292H11.3858V19.7292ZM14.0858 1.72925C20.6304 1.72925 25.9358 7.03468 25.9358 13.5792H27.4358C27.4358 6.20625 21.4588 0.229249 14.0858 0.229248V1.72925ZM2.23584 13.5792C2.23584 7.03467 7.54127 1.72925 14.0858 1.72925V0.229248C6.71284 0.229247 0.73584 6.20625 0.73584 13.5792H2.23584ZM14.0858 25.4292C7.54127 25.4292 2.23584 20.1238 2.23584 13.5792H0.73584C0.735839 20.9522 6.71284 26.9292 14.0858 26.9292V25.4292ZM14.0858 26.9292C21.4588 26.9292 27.4358 20.9522 27.4358 13.5792H25.9358C25.9358 20.1238 20.6304 25.4292 14.0858 25.4292V26.9292Z" fill="white"/>
</svg>
