<svg width="23" height="22" viewBox="0 0 23 22" fill="none" xmlns="http://www.w3.org/2000/svg">
<path d="M10.9327 5.29062H22.5542M10.9327 16.9121H22.5542M2.94292 2.38525H5.84829C6.65059 2.38525 7.30098 3.03564 7.30098 3.83794V6.74331C7.30098 7.54561 6.65059 8.19599 5.84829 8.19599H2.94292C2.14062 8.19599 1.49023 7.54561 1.49023 6.74331V3.83794C1.49023 3.03564 2.14062 2.38525 2.94292 2.38525ZM2.94292 14.0067H5.84829C6.65059 14.0067 7.30098 14.6571 7.30098 15.4594V18.3648C7.30098 19.1671 6.65059 19.8175 5.84829 19.8175H2.94292C2.14062 19.8175 1.49023 19.1671 1.49023 18.3648V15.4594C1.49023 14.6571 2.14062 14.0067 2.94292 14.0067Z" stroke="white" stroke-width="1.5"/>
</svg>
