<svg width="25" height="28" viewBox="0 0 25 28" fill="none" xmlns="http://www.w3.org/2000/svg">
<path d="M6.98525 26.179H18.1853M12.5853 26.179V17.179M12.5853 17.179C16.1199 17.179 18.9853 13.9555 18.9853 9.97901V2.779C18.9853 1.78489 18.2689 0.979004 17.3853 0.979004H7.78525C6.9016 0.979004 6.18525 1.78489 6.18525 2.779V9.97901C6.18525 13.9555 9.05063 17.179 12.5853 17.179ZM6.18525 4.57901H4.58525C2.81794 4.57901 1.38525 6.19078 1.38525 8.17901C1.38525 10.1672 2.81794 11.779 4.58525 11.779H6.18525M18.9853 4.57901H20.5853C22.3526 4.57901 23.7853 6.19078 23.7853 8.17901C23.7853 10.1672 22.3526 11.779 20.5853 11.779H18.9853" stroke="white" stroke-width="1.5"/>
</svg>
