<svg width="24" height="24" viewBox="0 0 24 24" fill="none" xmlns="http://www.w3.org/2000/svg">
<path d="M5.9 20.3333V20.8333H6.9V20.3333H5.9ZM17.6333 20.3333V20.8333H18.6333V20.3333H17.6333ZM6.9 20.3333V19.5998H5.9V20.3333H6.9ZM10.8 15.7H13.7333V14.7H10.8V15.7ZM17.6333 19.5998V20.3333H18.6333V19.5998H17.6333ZM13.7333 15.7C15.8873 15.7 17.6333 17.4459 17.6333 19.5998H18.6333C18.6333 16.8936 16.4395 14.7 13.7333 14.7V15.7ZM6.9 19.5998C6.9 17.4459 8.64606 15.7 10.8 15.7V14.7C8.09383 14.7 5.9 16.8936 5.9 19.5998H6.9ZM12.2667 5.9C10.3705 5.9 8.83333 7.43716 8.83333 9.33333H9.83333C9.83333 7.98944 10.9228 6.9 12.2667 6.9V5.9ZM15.7 9.33333C15.7 7.43716 14.1628 5.9 12.2667 5.9V6.9C13.6106 6.9 14.7 7.98944 14.7 9.33333H15.7ZM12.2667 12.7667C14.1628 12.7667 15.7 11.2295 15.7 9.33333H14.7C14.7 10.6772 13.6106 11.7667 12.2667 11.7667V12.7667ZM12.2667 11.7667C10.9228 11.7667 9.83333 10.6772 9.83333 9.33333H8.83333C8.83333 11.2295 10.3705 12.7667 12.2667 12.7667V11.7667ZM12.2667 22.0333C6.87269 22.0333 2.5 17.6607 2.5 12.2667H1.5C1.5 18.2129 6.3204 23.0333 12.2667 23.0333V22.0333ZM22.0333 12.2667C22.0333 17.6607 17.6606 22.0333 12.2667 22.0333V23.0333C18.2129 23.0333 23.0333 18.2129 23.0333 12.2667H22.0333ZM12.2667 2.5C17.6606 2.5 22.0333 6.87269 22.0333 12.2667H23.0333C23.0333 6.3204 18.2129 1.5 12.2667 1.5V2.5ZM12.2667 1.5C6.3204 1.5 1.5 6.3204 1.5 12.2667H2.5C2.5 6.87269 6.87269 2.5 12.2667 2.5V1.5Z" fill="#FFADAD"/>
</svg>
