<svg width="18" height="26" viewBox="0 0 18 26" fill="none" xmlns="http://www.w3.org/2000/svg">
<path fill-rule="evenodd" clip-rule="evenodd" d="M16.6946 24.8034V1.07619L1.5625 1.07617V24.8034L9.12857 18.0242L16.6946 24.8034Z" fill="white"/>
<path d="M16.6946 24.8034L16.1942 25.362C16.4145 25.5594 16.7304 25.6089 17.0005 25.4882C17.2707 25.3675 17.4446 25.0993 17.4446 24.8034H16.6946ZM16.6946 1.07619H17.4446V0.326191L16.6946 0.32619V1.07619ZM1.5625 1.07617L1.5625 0.326172L0.8125 0.326171V1.07617H1.5625ZM1.5625 24.8034H0.8125C0.8125 25.0993 0.986458 25.3675 1.25661 25.4882C1.52677 25.6089 1.84262 25.5594 2.06299 25.362L1.5625 24.8034ZM9.12857 18.0242L9.62906 17.4656C9.34421 17.2104 8.91293 17.2104 8.62808 17.4656L9.12857 18.0242ZM17.4446 24.8034V1.07619H15.9446V24.8034H17.4446ZM0.8125 1.07617V24.8034H2.3125V1.07617H0.8125ZM2.06299 25.362L9.62906 18.5828L8.62808 17.4656L1.06201 24.2448L2.06299 25.362ZM8.62808 18.5828L16.1942 25.362L17.1951 24.2448L9.62906 17.4656L8.62808 18.5828ZM16.6946 0.32619L1.5625 0.326172L1.5625 1.82617L16.6946 1.82619L16.6946 0.32619Z" fill="white"/>
</svg>
