<svg width="18" height="27" viewBox="0 0 18 27" fill="none" xmlns="http://www.w3.org/2000/svg">
<path d="M16.8025 25.4428L16.3021 26.0014C16.5224 26.1988 16.8383 26.2483 17.1084 26.1276C17.3786 26.0069 17.5525 25.7387 17.5525 25.4428H16.8025ZM16.8025 1.71559H17.5525V0.965595L16.8025 0.965594V1.71559ZM1.67041 1.71558L1.67041 0.965576L0.92041 0.965575V1.71558H1.67041ZM1.67041 25.4428H0.92041C0.92041 25.7387 1.09437 26.0069 1.36452 26.1276C1.63468 26.2483 1.95053 26.1988 2.1709 26.0014L1.67041 25.4428ZM9.23648 18.6636L9.73697 18.105C9.45212 17.8498 9.02084 17.8498 8.73599 18.105L9.23648 18.6636ZM17.5525 25.4428V1.71559H16.0525V25.4428H17.5525ZM0.92041 1.71558V25.4428H2.42041V1.71558H0.92041ZM2.1709 26.0014L9.73697 19.2222L8.73599 18.105L1.16992 24.8842L2.1709 26.0014ZM8.73599 19.2222L16.3021 26.0014L17.303 24.8842L9.73697 18.105L8.73599 19.2222ZM16.8025 0.965594L1.67041 0.965576L1.67041 2.46558L16.8025 2.46559L16.8025 0.965594Z" fill="white"/>
</svg>
